<?xml version="1.0" encoding="UTF-8"?>
<svg width="236px" height="32px" viewBox="0 0 236 32" version="1.1" xmlns="http://www.w3.org/2000/svg" xmlns:xlink="http://www.w3.org/1999/xlink">
    <!-- Generator: Sketch 63.1 (92452) - https://sketch.com -->
    <title>Group 24</title>
    <desc>Created with Sketch.</desc>
    <defs>
        <polygon id="path-1" points="8.77192982e-05 0.00462318841 24.7123684 0.00462318841 24.7123684 28.8287319 8.77192982e-05 28.8287319"></polygon>
        <polygon id="path-3" points="0.327316 0.00469117647 21.873236 0.00469117647 21.873236 28.9492074 0.327316 28.9492074"></polygon>
        <polygon id="path-5" points="0.177923077 0.385404255 17.6123077 0.385404255 17.6123077 19.9998723 0.177923077 19.9998723"></polygon>
    </defs>
    <g id="Design" stroke="none" stroke-width="1" fill="none" fill-rule="evenodd">
        <g id="1.0---Home" transform="translate(-54.000000, -37.000000)">
            <g id="Nav-/-Light" transform="translate(54.000000, 37.000000)">
                <g id="Group-24">
                    <g id="Group-3" transform="translate(0.690476, 2.000000)">
                        <mask id="mask-2" fill="white">
                            <use xlink:href="#path-1"></use>
                        </mask>
                        <g id="Clip-2"></g>
                        <path d="M16.2891228,16.2771957 C15.2101754,15.4076159 13.9084211,14.9726159 12.3842982,14.9726159 C10.8588596,14.9726159 9.54789474,15.400471 8.45140351,16.2557609 C7.35403509,17.1110507 6.80578947,18.1521087 6.80578947,19.3776739 C6.80578947,20.5750797 7.35403509,21.6014275 8.45140351,22.4571377 C9.54789474,23.3124275 10.8588596,23.7398623 12.3842982,23.7398623 C13.8711404,23.7398623 15.1636842,23.3124275 16.2614912,22.4571377 C17.3575439,21.6014275 17.9066667,20.5897899 17.9066667,19.4205435 C17.9066667,18.1949783 17.367193,17.1471957 16.2891228,16.2771957 L16.2891228,16.2771957 Z M8.77192982e-05,0.00441304348 L6.86149123,0.00441304348 L6.86149123,11.2093406 C8.98122807,10.3826304 10.9522807,9.96906522 12.7746491,9.96906522 C16.0465789,9.96906522 18.8553509,10.8958043 21.1978947,12.7488623 C23.5408772,14.6027609 24.7123684,16.7975145 24.7123684,19.3348043 C24.7123684,21.9296739 23.5035965,24.1609928 21.0864912,26.0279203 C18.6685088,27.8956884 15.7496491,28.8287319 12.3281579,28.8287319 C10.2452632,28.8287319 8.27464912,28.437442 6.4154386,27.6527609 C4.55535088,26.8693406 3.06807018,25.8072681 1.9522807,24.4669638 C1.20798246,23.5835145 0.69745614,22.6853551 0.418508772,21.7724855 C0.139561404,20.8604565 8.77192982e-05,19.6063116 8.77192982e-05,18.0092101 L8.77192982e-05,0.00441304348 Z" id="Fill-1" fill="#FFFFFF" mask="url(#mask-2)"></path>
                    </g>
                    <path d="M35.173574,30 L28.6904762,30 L28.6904762,20.3008728 C28.6904762,18.8249376 28.7518937,17.7542208 28.8763999,17.0895929 C29.0004883,16.4258356 29.2566035,15.7690422 29.6468344,15.1192129 C31.3117919,12.3727808 34.3049551,11 38.6279952,11 C39.0169727,11 39.3716901,11.0152338 39.6904762,11.0443956 L39.6904762,16.0489084 L38.8933021,16.0489084 C37.4401723,16.0789407 36.4570745,16.3078826 35.9440086,16.7352988 C35.430107,17.1640208 35.173574,17.9535656 35.173574,19.105239 L35.173574,30 Z" id="Fill-4" fill="#FFFFFF"></path>
                    <path d="M54.162428,16.1511962 C52.6261818,16.1511962 51.3156462,16.5773525 50.229938,17.4279638 C49.1433464,18.2794258 48.600934,19.3103668 48.600934,20.5220627 C48.600934,21.7631047 49.1530639,22.8157363 50.2582071,23.6816587 C51.3624669,24.5471558 52.6822782,24.9796917 54.2185244,24.9796917 C55.7163424,24.9796917 57.0083263,24.5471558 58.094918,23.6816587 C59.1810679,22.8157363 59.7243637,21.7920255 59.7243637,20.6088251 C59.7243637,19.3971292 59.1713504,18.3517278 58.0670906,17.471345 C56.9619474,16.5913876 55.660246,16.1511962 54.162428,16.1511962 L54.162428,16.1511962 Z M54.3311589,6.19776715 L49.4432633,9.01031366 L45.7356007,6.2841042 L50.7917854,3.34141414 C52.2525003,2.44742158 53.4322914,2 54.3311589,2 C55.2300264,2 56.4279274,2.44742158 57.9266288,3.34141414 L62.9262754,6.2841042 L59.2186127,9.01031366 L54.3311589,6.19776715 Z M66.6904762,29.7835194 L59.7804601,29.7835194 L59.7804601,28.2685805 C57.5701737,29.4232855 55.4354187,30 53.3757533,30 C50.2670411,30 47.5421697,29.0549708 45.2020223,27.1653376 C42.8609916,25.2757044 41.6904762,23.061563 41.6904762,20.5220627 C41.6904762,17.897076 42.9073705,15.6535885 45.3424842,13.7928761 C47.7762728,11.9317384 50.716254,11.0015949 54.162428,11.0015949 C56.1470037,11.0015949 58.0193866,11.3405635 59.7804601,12.0185008 C61.5406502,12.6964381 63.0009234,13.641042 64.1626047,14.8531632 C65.8481468,16.5841574 66.6904762,18.8493355 66.6904762,21.6474216 L66.6904762,29.7835194 Z" id="Fill-6" fill="#FFFFFF"></path>
                    <path d="M92.4925157,10.3476205 L84.9776473,19.4347429 L93.6904762,29 L85.4678777,29 L80.7299827,23.3042581 C79.6767365,22.0292324 79.059774,21.2323412 78.8786671,20.9131575 C78.6967038,20.5944011 78.6063644,20.1739502 78.6063644,19.6522322 C78.6063644,18.6378518 79.3140944,17.2466038 80.7299827,15.478061 L84.7597195,10.3476205 L92.4925157,10.3476205 Z M71.6904762,29 L78.3340617,29 L78.3340617,0 L71.6904762,0 L71.6904762,29 Z" id="Fill-8" fill="#FFFFFF"></path>
                    <path d="M101.595216,18.6347012 L111.451686,18.6347012 C110.523086,16.8420875 108.908434,15.9451412 106.606854,15.9451412 C105.455845,15.9451412 104.435305,16.1838722 103.544356,16.6609078 C102.653408,17.1379434 102.003257,17.7961588 101.595216,18.6347012 M110.560738,23.7533487 L118.244783,23.7533487 C117.278969,25.7203213 115.785153,27.2528888 113.76246,28.3514775 C111.738453,29.4509188 109.427679,30 106.829701,30 C103.451102,30 100.583431,29.0749175 98.2262491,27.2234737 C95.8686294,25.3733088 94.6904762,23.1177276 94.6904762,20.45673 C94.6904762,17.8255738 95.8598731,15.5913079 98.1986669,13.7547847 C100.537023,11.9186879 103.3955,11 106.774098,11 C109.892198,11 112.657421,11.8393951 115.071081,13.5160538 C117.483865,15.193565 118.690476,17.1021338 118.690476,19.24176 C118.690476,20.2252462 118.197937,21.013911 117.214611,21.606049 C116.230846,22.1990397 114.940175,22.4953219 113.344787,22.4953219 L101.818062,22.4953219 C102.856991,24.2303843 104.490907,25.0979156 106.718496,25.0979156 C108.091038,25.0979156 109.372077,24.650295 110.560738,23.7533487" id="Fill-10" fill="#FFFFFF"></path>
                    <path d="M136.690476,29 L135.431542,29 C133.228716,29 131.331861,28.5963347 129.740977,27.7868749 C128.14968,26.9782668 126.98765,25.8230515 126.253237,24.3208032 C125.973245,23.7723634 125.798817,23.194117 125.729128,22.5873416 C125.658615,21.980992 125.605832,20.6810022 125.571607,18.6882239 L125.571607,15.4818947 L121.690476,15.4818947 L121.690476,10.3692261 L125.571607,10.3692261 L125.571607,4 L132.022563,4 L132.022563,10.3692261 L136.690476,10.3692261 L136.690476,15.4818947 L132.022563,15.4818947 L132.022563,19.2081346 C131.952462,21.1728096 132.214723,22.4647091 132.809346,23.085962 C133.403556,23.7072149 134.697541,24.0176284 136.690476,24.0176284 L136.690476,29 Z" id="Fill-12" fill="#FFFFFF"></path>
                    <g id="Group-16" transform="translate(138.690476, 0.000000)">
                        <mask id="mask-4" fill="white">
                            <use xlink:href="#path-3"></use>
                        </mask>
                        <g id="Clip-15"></g>
                        <path d="M21.873236,28.9492074 L15.045316,28.9492074 L15.045316,18.6213691 C15.045316,17.6379279 14.878116,16.8852074 14.541956,16.3644868 C13.907476,15.2944721 12.769636,14.7592515 11.128436,14.7592515 C10.381756,14.7592515 9.682156,14.918325 9.030076,15.2364721 C8.376676,15.5550456 7.919076,15.9597662 7.658596,16.4514868 C7.359836,16.9146338 7.211116,17.6230015 7.211116,18.5778691 L7.211116,28.9492074 L0.327316,28.9492074 L0.327316,0.00464852941 L7.211116,0.00464852941 L7.211116,10.9402074 C8.889716,10.1883397 10.568756,9.81176618 12.247356,9.81176618 C13.851156,9.81176618 15.362116,10.1013397 16.780676,10.6796338 C18.197476,11.2587809 19.335316,12.040075 20.194636,13.0230897 C20.828236,13.7758103 21.266036,14.5494279 21.509356,15.3447956 C21.751796,16.1405897 21.873236,17.2477074 21.873236,18.6644426 L21.873236,28.9492074 Z" id="Fill-14" fill="#FFFFFF" mask="url(#mask-4)"></path>
                    </g>
                    <path d="M177.162427,16.1500336 C175.625685,16.1500336 174.315545,16.5762257 173.229798,17.4269084 C172.142726,18.2784419 171.600295,19.3094694 171.600295,20.5212671 C171.600295,21.7624133 172.152444,22.8151332 173.257626,23.6811283 C174.361925,24.546698 175.682225,24.9792702 177.218525,24.9792702 C178.716396,24.9792702 180.007984,24.546698 181.095056,23.6811283 C182.180803,22.8151332 182.724559,21.7913365 182.724559,20.6080367 C182.724559,19.3962391 182.171526,18.3507499 181.067228,17.4702933 C179.961604,16.5902619 178.660298,16.1500336 177.162427,16.1500336 L177.162427,16.1500336 Z M189.690476,29.7835012 L182.780658,29.7835012 L182.780658,28.2684352 C180.570293,29.4232371 178.435463,30 176.376166,30 C173.266461,30 170.541935,29.0548914 168.201705,27.1650996 C165.860149,25.2753078 164.690476,23.0609805 164.690476,20.5212671 C164.690476,17.89606 165.906972,15.6523842 168.34173,13.7915156 C170.776046,11.9302216 173.71569,11 177.162427,11 C179.147073,11 181.01908,11.3389971 182.780658,12.0169913 C184.540468,12.6949854 186.001235,13.6396687 187.162957,14.8518916 C188.848117,16.5830311 189.690476,18.8483994 189.690476,21.6467204 L189.690476,29.7835012 Z" id="Fill-17" fill="#FFFFFF"></path>
                    <path d="M209.911748,3 C210.77682,3 211.513234,3.26475694 212.118948,3.79513889 C212.725071,4.32508681 213.028541,4.95833333 213.028541,5.69401042 C213.028541,6.46006944 212.716494,7.10026042 212.093217,7.61501736 C211.469531,8.13064236 210.724948,8.38802083 209.859468,8.38802083 C208.993578,8.38802083 208.248995,8.13064236 207.625718,7.61501736 C207.002441,7.10026042 206.690803,6.46006944 206.690803,5.69401042 C206.690803,4.92881944 207.002441,4.28819444 207.625718,3.77300347 C208.248995,3.25824653 209.010324,3 209.911748,3 L209.911748,3 Z M197.236272,3.77300347 C197.859549,3.25824653 198.603724,3 199.470022,3 C200.335094,3 201.080494,3.27256944 201.703771,3.81727431 C202.327048,4.36241319 202.638686,5.00260417 202.638686,5.73828125 C202.638686,6.47439236 202.327048,7.10026042 201.703771,7.61501736 C201.080494,8.13064236 200.335094,8.38802083 199.470022,8.38802083 C198.603724,8.38802083 197.859549,8.12326389 197.236272,7.59331597 C196.612587,7.06336806 196.300949,6.43012153 196.300949,5.69401042 C196.300949,4.92881944 196.612587,4.28819444 197.236272,3.77300347 L197.236272,3.77300347 Z M214.690476,11.5677083 L214.690476,21.1514757 C214.690476,22.7122396 214.578156,23.8893229 214.353106,24.6844618 C214.12724,25.4796007 213.685718,26.3042535 213.028541,27.1579861 C212.127526,28.3654514 210.941421,29.3077257 209.469817,29.984375 C207.997397,30.6614583 206.396319,31 204.66454,31 C202.932353,31 201.305135,30.6467014 199.78166,29.9401042 C198.257368,29.2335069 197.062278,28.2916667 196.197205,27.1137153 C195.192038,25.6419271 194.690476,23.6840278 194.690476,21.2395833 L194.690476,11.5677083 L201.080494,11.5677083 L201.080494,21.1514757 C201.080494,22.5646701 201.184237,23.5221354 201.392132,24.0221354 C201.633519,24.5820312 202.067281,25.0377604 202.690558,25.391059 C203.314243,25.7443576 203.989392,25.921441 204.716412,25.921441 C205.444249,25.921441 206.119398,25.7378472 206.742675,25.3693576 C207.36636,25.0013021 207.781742,24.5377604 207.989637,23.9778646 C208.197124,23.4483507 208.301275,22.4917535 208.301275,21.1072049 L208.301275,11.5677083 L214.690476,11.5677083 Z" id="Fill-19" fill="#FFFFFF"></path>
                    <g id="Group-23" transform="translate(217.690476, 12.000000)">
                        <mask id="mask-6" fill="white">
                            <use xlink:href="#path-5"></use>
                        </mask>
                        <g id="Clip-22"></g>
                        <path d="M16.0862308,1.42455319 L16.0862308,6.23051064 C14.1288462,5.4513617 12.2499231,5.06157447 10.4503846,5.06157447 C8.49346154,5.06157447 7.51546154,5.4513617 7.51546154,6.23051064 C7.51546154,6.54880851 7.71115385,6.81519149 8.10253846,7.03178723 C8.49346154,7.24838298 9.19776923,7.45817021 10.2159231,7.65944681 C12.5637692,8.17944681 14.2077692,8.75689362 15.147,9.39178723 C16.7900769,10.5173191 17.6125385,12.0045532 17.6125385,13.8513617 C17.6125385,15.6990213 16.7217692,17.1858298 14.9416154,18.3113617 C13.1600769,19.4373191 10.8223846,19.9998723 7.92623077,19.9998723 C5.34392308,19.9998723 2.87838462,19.595617 0.530076923,18.7879574 L0.530076923,13.548383 C3.19084615,14.6458298 5.42192308,15.1934894 7.22192308,15.1934894 C9.33530769,15.1934894 10.3917692,14.7607234 10.3917692,13.894766 C10.3917692,13.4909362 10.1868462,13.1879574 9.77561538,12.9854043 C9.36484615,12.7841277 8.45469231,12.5526383 7.04561538,12.2926383 C4.65807692,11.8594468 2.91669231,11.188383 1.82146154,10.2794468 C0.725307692,9.37008511 0.177923077,8.15093617 0.177923077,6.62029787 C0.177923077,4.802 1.08761538,3.30795745 2.90746154,2.13902128 C4.72730769,0.970085106 7.06546154,0.385404255 9.92238462,0.385404255 C11.6439231,0.385404255 13.6982308,0.731787234 16.0862308,1.42455319" id="Fill-21" fill="#FFFFFF" mask="url(#mask-6)"></path>
                    </g>
                </g>
            </g>
        </g>
    </g>
</svg>